<?xml version="1.0" ?><!DOCTYPE svg  PUBLIC '-//W3C//DTD SVG 1.1//EN'  'http://www.w3.org/Graphics/SVG/1.1/DTD/svg11.dtd'><svg enable-background="new 0 0 128 128" id="Layer_1" version="1.1" viewBox="0 0 128 128" xml:space="preserve" xmlns="http://www.w3.org/2000/svg" xmlns:xlink="http://www.w3.org/1999/xlink"><circle cx="64" cy="64" fill="#323a45" id="circle" r="64"/><g id="icon"><path d="M95,93H33c-2.2,0-4-1.8-4-4V47c0-2.2,1.8-4,4-4h62c2.2,0,4,1.8,4,4v42C99,91.2,97.2,93,95,93z" fill="#FFFFFF" id="bottom"/><path d="M95,43H53v-4c0-2.2-1.8-4-4-4H33c-2.2,0-4,1.8-4,4v4v8h4h6h50h6h4v-4C99,44.8,97.2,43,95,43z" fill="#E6E6E6" id="top"/></g></svg>