<?xml version="1.0" encoding="UTF-8" standalone="no"?>
<svg width="116px" height="43px" viewBox="0 0 116 43" version="1.1" xmlns="http://www.w3.org/2000/svg" xmlns:xlink="http://www.w3.org/1999/xlink">
    <!-- Generator: Sketch 39.1 (31720) - http://www.bohemiancoding.com/sketch -->
    <title>Group Copy 4</title>
    <desc>Created with Sketch.</desc>
    <defs></defs>
    <g id="Page-1" stroke="none" stroke-width="1" fill="none" fill-rule="evenodd">
        <g id="Artboard" transform="translate(-106.000000, -559.000000)">
            <g id="Group-Copy-4" transform="translate(106.000000, 559.000000)">
                <rect id="Rectangle" fill="#02BFE7" x="1" y="38" width="114" height="5"></rect>
                <path d="M42.0214397,9.67072016 C35.8524797,9.71104016 31.4979198,14.0656001 31.4979198,20.3958401 C31.4979198,26.72608 35.8121597,31.12096 42.0617597,31.12096 C45.6099196,31.12096 48.5935996,29.83072 50.6095996,27.61312 L48.8758396,25.79872 C47.2227196,27.53248 44.9244797,28.50016 42.3036797,28.50016 C38.1507197,28.50016 35.1267197,25.7584 34.6025597,21.5651201 L51.9401596,21.5651201 C52.2627196,14.3881601 48.8758396,9.67072016 42.0214397,9.67072016 L42.0214397,9.67072016 Z M34.6025597,19.0652801 C35.0460797,14.9526401 37.9491197,12.2915201 42.0214397,12.2915201 C46.1743996,12.2915201 48.9161596,14.9526401 49.1177596,19.0652801 L34.6025597,19.0652801 Z M66.4230395,27.12928 C65.2537595,27.81472 64.1247995,28.1776 63.0361595,28.21792 C61.2217595,28.21792 60.2137595,27.1696 60.2137595,24.58912 L60.2137595,12.8963201 L66.9471995,12.8963201 L66.9471995,10.4368002 L60.2137595,10.4368002 L60.2137595,4.8726402 L57.1091196,4.8726402 L57.1091196,10.4368002 L54.0447996,10.4368002 L54.0447996,12.8963201 L57.1091196,12.8963201 L57.1091196,25.11328 C57.1091196,29.30656 59.4073595,31.16128 62.5119995,31.12096 C64.2054395,31.12096 65.8182395,30.55648 67.3100795,29.54848 L66.4230395,27.12928 Z M89.3167993,31 L89.2764793,16.9686401 C89.2361593,12.4528001 86.3331193,9.67072016 81.0915194,9.67072016 C77.4627194,9.67072016 75.1644794,10.7190402 72.4227194,12.5334401 L73.7532794,14.7510401 C75.9708794,13.1785601 78.1481594,12.2915201 80.4867194,12.2915201 C84.2364794,12.2915201 86.1718393,14.1865601 86.1718393,17.2912001 L86.1718393,18.6217601 L79.1964794,18.6217601 C74.1967994,18.6620801 71.2534395,21.0006401 71.2534395,24.71008 C71.2534395,28.33888 74.0758394,31.12096 78.4707194,31.12096 C81.8575994,31.12096 84.5590394,29.992 86.2524793,27.69376 L86.2524793,31 L89.3167993,31 Z M79.0755194,28.50016 C76.0918394,28.50016 74.1967994,26.92768 74.1967994,24.58912 C74.1967994,22.2102401 76.0515194,21.1216001 79.5996794,21.1216001 L86.2121593,21.1216001 L86.2121593,23.7020801 C85.4057593,26.72608 82.6639994,28.50016 79.0755194,28.50016 L79.0755194,28.50016 Z M95.9775993,7.89664017 L95.9775993,10.2755202 L93.2358393,10.2755202 L93.2358393,12.7753601 L95.9775993,12.7753601 L95.9775993,31 L99.0822392,31 L99.0822392,12.7753601 L105.170559,12.7753601 L105.170559,10.2755202 L99.0822392,10.2755202 L99.0822392,7.53376018 C99.0822392,4.9936002 100.735359,3.66304021 102.831999,3.66304021 C104.041599,3.66304021 105.372159,4.0662402 106.541439,4.7113602 L106.622079,1.88896022 C105.533439,1.20352023 104.162559,0.840640228 102.791679,0.800320229 C99.3241592,0.800320229 95.9775993,3.21952021 95.9775993,7.89664017 L95.9775993,7.89664017 Z M113.35472,6.72664336 C114.618119,6.72664336 115.57656,5.72463708 115.57656,4.41767237 C115.57656,3.06714217 114.618119,2.10870138 113.35472,2.10870138 C112.091321,2.10870138 111.13288,3.06714217 111.13288,4.41767237 C111.13288,5.72463708 112.091321,6.72664336 113.35472,6.72664336 L113.35472,6.72664336 Z M111.7984,31.0086401 L114.90304,31.0086401 L114.90304,9.80032023 L111.7984,9.80032023 L111.7984,31.0086401 Z" id="Vetafi" fill="#FFFFFF"></path>
                <polygon id="Path" fill="#02BFE7" points="0.798400002 2.73568021 11.5235199 31 21.2003198 31 32.0060798 2.73568021 22.4502398 2.73568021 16.6441599 21.2828801 10.7977599 2.73568021"></polygon>
            </g>
        </g>
    </g>
</svg>