<?xml version="1.0" ?><svg height="24px" version="1.1" viewBox="0 0 24 24" width="24px" xmlns="http://www.w3.org/2000/svg" xmlns:sketch="http://www.bohemiancoding.com/sketch/ns" xmlns:xlink="http://www.w3.org/1999/xlink"><title/><desc/><defs/><g fill="none" fill-rule="evenodd" id="miu" stroke="#ffffff" stroke-width="1"><g id="Artboard-1" transform="translate(-503.000000, -227.000000)"><g id="slice" transform="translate(215.000000, 119.000000)"/><path d="M506.206336,231 C506.09238,231 506,231.093268 506,231.210129 L506,249.789871 C506,249.905922 506.091899,250 506.206336,250 L520.793664,250 C520.90762,250 521,249.906732 521,249.789871 L521,231.210129 C521,231.094078 520.908101,231 520.793664,231 L506.206336,231 Z M507,232 L507,249 L520,249 L520,232 L507,232 Z M508,234 L508,235 L519,235 L519,234 L508,234 L508,234 Z M508,237 L508,238 L519,238 L519,237 L508,237 L508,237 Z M508,240 L508,241 L519,241 L519,240 L508,240 L508,240 Z M508,243 L508,244 L519,244 L519,243 L508,243 L508,243 Z M508,246 L508,247 L515,247 L515,246 L508,246 L508,246 Z M509,230 L510,230 L510,229 L523,229 L523,246 L522,246 L522,247 L524,247 L524,228 L509,228 L509,230 Z" fill="#000000" id="editor-documents-files-outline-stroke"/></g></g></svg>